<?xml version="1.0" standalone="no"?>
<!DOCTYPE svg PUBLIC "-//W3C//DTD SVG 20010904//EN"
 "http://www.w3.org/TR/2001/REC-SVG-20010904/DTD/svg10.dtd">
<svg version="1.0" xmlns="http://www.w3.org/2000/svg"
 width="1767.000000pt" height="1767.000000pt" viewBox="0 0 1767.000000 1767.000000"
 preserveAspectRatio="xMidYMid meet">
<metadata>
Created by potrace 1.14, written by Peter Selinger 2001-2017
</metadata>
<g transform="translate(0.000000,1767.000000) scale(0.100000,-0.100000)"
fill="#000000" stroke="none">
<path d="M13098 15345 c-2 -2 -41 -6 -88 -9 -93 -7 -154 -14 -280 -31 -67 -9
-204 -32 -240 -40 -8 -2 -25 -4 -38 -4 -13 -1 -21 -4 -19 -8 3 -5 -7 -8 -21
-9 -15 0 -40 -3 -57 -6 -129 -25 -202 -41 -216 -48 -9 -5 -20 -6 -23 -3 -13
14 -4 34 34 74 22 23 40 45 40 49 0 23 -161 19 -285 -7 -16 -4 -41 -8 -55 -10
-47 -6 -75 -11 -75 -13 0 -1 -9 -3 -20 -5 -44 -8 -81 -15 -105 -19 -42 -9 -74
-15 -100 -20 -14 -2 -45 -9 -70 -16 -25 -6 -54 -12 -65 -13 -11 -2 -24 -5 -30
-9 -5 -3 -18 -4 -27 -3 -10 2 -18 0 -18 -4 0 -4 -6 -8 -12 -8 -12 0 -79 -13
-148 -29 -14 -3 -34 -7 -45 -9 -11 -2 -55 -13 -99 -25 -43 -11 -82 -20 -87
-20 -5 0 -8 15 -6 33 3 33 -28 81 -45 71 -4 -3 -8 -1 -8 5 0 6 -28 8 -72 6
-63 -4 -113 -10 -113 -15 0 -1 -12 -3 -26 -5 -14 -2 -45 -9 -70 -15 -24 -7
-48 -13 -54 -14 -12 -2 -84 -25 -105 -33 -8 -4 -18 -6 -21 -5 -4 1 -36 -10
-73 -23 -36 -13 -66 -21 -66 -17 0 4 -4 3 -8 -3 -6 -9 -155 -65 -227 -85 -29
-8 -194 -65 -225 -77 -8 -3 -19 -5 -24 -4 -4 1 -14 -3 -22 -9 -7 -7 -23 -13
-36 -15 -13 -2 -56 -10 -96 -19 -99 -22 -135 -21 -158 5 -10 12 -19 22 -18 23
35 63 17 94 -35 62 -10 -7 -12 -5 -6 3 6 10 3 11 -11 3 -11 -6 -34 -12 -52
-15 -18 -3 -40 -11 -48 -17 -7 -7 -14 -9 -14 -5 0 4 -7 2 -15 -5 -8 -7 -15 -9
-15 -5 0 4 -6 3 -12 -2 -7 -5 -35 -18 -63 -28 -27 -10 -60 -25 -72 -32 -12 -8
-25 -14 -28 -13 -10 3 -95 -33 -95 -40 0 -4 -6 -7 -12 -7 -14 0 -134 -53 -179
-78 -14 -8 -29 -12 -33 -8 -3 3 -6 1 -6 -5 0 -7 -3 -11 -7 -10 -5 0 -35 -11
-68 -26 -127 -58 -162 -74 -210 -96 -27 -12 -58 -26 -67 -31 -23 -12 -48 -12
-48 1 0 5 36 47 80 92 72 74 79 84 64 95 -15 11 -39 11 -103 -2 -28 -5 -105
-38 -131 -55 -14 -9 -51 -29 -82 -45 -32 -15 -58 -31 -58 -35 0 -4 -12 -11
-27 -15 -15 -3 -30 -10 -33 -14 -3 -4 -27 -21 -55 -36 -27 -16 -52 -32 -55
-35 -3 -3 -21 -13 -40 -24 -19 -10 -40 -24 -45 -30 -6 -6 -15 -12 -22 -13 -10
-2 -30 -15 -103 -63 -8 -6 -64 -42 -124 -80 -61 -39 -112 -74 -115 -79 -3 -4
-16 -11 -28 -15 -13 -4 -23 -12 -23 -17 0 -5 -6 -9 -14 -9 -8 0 -21 -6 -28
-12 -22 -21 -139 -98 -148 -98 -5 0 -11 -6 -13 -12 -4 -10 -6 -10 -6 0 -1 7 6
15 14 18 8 4 15 10 15 15 0 5 14 23 30 41 17 17 30 35 30 39 0 5 7 9 16 9 8 0
13 4 9 9 -3 5 5 17 17 25 12 9 19 16 14 16 -4 0 8 15 27 34 20 19 33 37 30 40
-4 3 -1 6 5 6 7 0 12 4 12 9 0 6 -8 8 -17 6 -23 -4 -105 -36 -118 -45 -5 -4
-47 -27 -93 -51 -46 -24 -96 -50 -110 -58 -15 -8 -29 -17 -32 -20 -3 -3 -15
-12 -27 -18 -57 -32 -68 -39 -81 -50 -7 -7 -17 -13 -22 -13 -4 0 -37 -18 -71
-40 -35 -22 -97 -58 -136 -82 -40 -23 -73 -46 -73 -50 0 -4 -7 -8 -15 -8 -8 0
-24 -9 -35 -20 -11 -11 -22 -20 -25 -21 -29 -5 -44 -13 -39 -20 3 -5 -2 -9
-11 -9 -9 0 -21 -5 -28 -10 -25 -21 -88 -60 -97 -60 -6 0 -10 -4 -10 -8 0 -5
-19 -19 -42 -32 -24 -13 -82 -50 -130 -82 -48 -32 -92 -58 -98 -58 -5 0 -10
-5 -10 -12 0 -6 -3 -9 -6 -5 -3 3 -15 -3 -27 -14 -11 -10 -27 -19 -34 -19 -7
0 -13 -4 -13 -8 0 -5 -16 -16 -35 -25 -19 -9 -35 -22 -35 -29 0 -6 -3 -8 -7
-5 -3 4 -21 -4 -39 -18 -18 -14 -37 -25 -43 -25 -6 0 -11 -4 -11 -10 0 -5 -4
-10 -10 -10 -9 0 -72 -39 -97 -60 -7 -6 -13 -7 -13 -3 0 4 -4 3 -8 -2 -10 -15
-72 -58 -72 -50 0 3 -12 -6 -27 -20 -15 -14 -31 -25 -35 -25 -7 0 -122 -71
-143 -88 -5 -4 -29 -19 -52 -32 -24 -13 -43 -26 -43 -30 0 -3 -20 -14 -45 -24
-25 -11 -45 -23 -45 -27 0 -5 -17 -18 -37 -29 -49 -26 -71 -40 -101 -65 -13
-11 -25 -19 -28 -17 -2 1 -13 -6 -23 -15 -26 -24 -40 -34 -76 -57 -16 -11 -35
-24 -41 -30 -17 -17 -105 -90 -126 -104 -58 -42 -314 -293 -393 -387 -27 -32
-60 -68 -73 -79 -12 -11 -22 -26 -22 -33 0 -7 -7 -13 -16 -13 -8 0 -13 -4 -9
-9 3 -6 0 -13 -8 -18 -7 -4 -31 -30 -52 -58 -22 -27 -43 -51 -47 -53 -5 -2 -8
-10 -8 -17 0 -7 -3 -15 -8 -17 -4 -2 -29 -32 -55 -68 -27 -36 -53 -72 -60 -80
-7 -8 -34 -49 -62 -90 -27 -41 -53 -77 -56 -80 -3 -3 -14 -21 -25 -40 -10 -19
-25 -39 -31 -43 -7 -4 -13 -15 -13 -22 0 -8 -4 -15 -9 -15 -5 0 -14 -13 -21
-30 -7 -16 -16 -30 -20 -30 -4 0 -13 -13 -20 -30 -7 -16 -17 -30 -22 -30 -5 0
-6 -4 -3 -10 3 -5 2 -10 -3 -10 -5 0 -15 -13 -22 -30 -7 -16 -16 -30 -21 -30
-4 0 -10 -8 -14 -19 -3 -10 -16 -31 -30 -47 -13 -15 -22 -31 -19 -36 3 -4 1
-8 -3 -8 -5 0 -17 -16 -27 -35 -11 -19 -23 -35 -28 -35 -4 0 -8 -6 -8 -13 0
-7 -13 -31 -30 -53 -16 -21 -30 -45 -30 -51 0 -7 -4 -13 -10 -13 -5 0 -10 -4
-10 -10 0 -11 -62 -103 -72 -108 -5 -2 -8 -8 -8 -12 0 -8 -60 -100 -87 -135
-18 -23 -46 -70 -42 -70 2 0 -6 -11 -18 -24 -12 -13 -34 -43 -49 -67 -15 -24
-32 -44 -36 -44 -4 0 -8 -6 -8 -13 0 -7 -8 -22 -17 -33 -35 -37 -78 -99 -75
-106 1 -5 -2 -8 -7 -8 -5 0 -35 -33 -67 -72 -32 -40 -62 -74 -66 -76 -4 -2 -8
-8 -8 -13 0 -10 -75 -92 -187 -203 -86 -86 -193 -185 -193 -179 0 2 -11 -6
-25 -19 -29 -27 -32 -30 -115 -91 -36 -27 -73 -55 -83 -63 -9 -8 -19 -14 -22
-14 -3 0 -27 -16 -54 -35 -26 -19 -53 -35 -58 -35 -6 0 -16 -7 -23 -15 -7 -8
-21 -15 -31 -15 -11 0 -19 -4 -19 -10 0 -5 -6 -10 -13 -10 -7 0 -23 -9 -35
-20 -12 -12 -22 -19 -22 -16 0 2 -33 -12 -72 -31 -132 -64 -203 -96 -215 -96
-7 0 -13 -5 -13 -10 0 -6 -3 -8 -6 -4 -4 3 -21 -1 -38 -10 -17 -10 -35 -16
-40 -15 -4 2 -14 -3 -22 -9 -8 -6 -14 -9 -14 -5 0 4 -13 0 -30 -9 -16 -9 -30
-13 -30 -9 0 4 -7 1 -15 -6 -8 -6 -19 -9 -25 -5 -5 3 -10 2 -10 -3 0 -5 -6 -9
-12 -9 -7 -1 -40 -9 -73 -18 -33 -10 -68 -18 -77 -18 -10 -1 -18 -4 -18 -7 0
-4 -6 -7 -12 -7 -19 -1 -91 -14 -110 -19 -45 -13 -123 -27 -155 -28 -13 -1
-23 -3 -23 -6 0 -3 -17 -6 -38 -8 -34 -2 -70 -8 -82 -12 -3 -1 -20 -2 -37 -2
-18 0 -33 -3 -33 -6 0 -4 -19 -8 -43 -9 -23 -1 -73 -5 -112 -8 -38 -3 -91 -7
-116 -9 -25 -1 -50 -6 -57 -9 -6 -4 -13 -3 -17 3 -4 6 -11 7 -17 4 -6 -4 -83
-9 -171 -10 -173 -4 -251 -11 -305 -28 -29 -9 -28 -20 3 -40 14 -9 25 -14 25
-10 0 4 7 0 16 -7 9 -8 38 -20 63 -27 53 -14 60 -17 81 -25 8 -4 42 -13 75
-21 33 -8 105 -26 159 -40 108 -28 126 -33 171 -42 17 -3 37 -8 45 -11 19 -7
27 -10 64 -17 16 -3 30 -7 33 -10 6 -6 -55 -20 -92 -21 -16 0 -34 -3 -40 -5
-5 -3 -43 -5 -82 -5 -40 0 -73 -2 -73 -5 0 -3 -44 -6 -98 -6 -94 -1 -287 -10
-287 -14 0 -1 -22 -3 -50 -5 -27 -1 -52 -4 -55 -5 -3 -1 -12 -2 -22 -1 -9 1
-19 -2 -22 -8 -3 -5 -15 -7 -26 -4 -13 4 -20 0 -20 -10 0 -15 34 -33 80 -41
14 -3 34 -7 45 -9 11 -3 54 -10 95 -17 41 -6 86 -14 100 -16 14 -3 50 -7 80
-10 30 -3 66 -7 80 -10 14 -2 59 -7 100 -10 71 -6 105 -11 105 -14 0 -1 29 -3
65 -5 36 -2 88 -7 115 -10 51 -5 141 -13 230 -20 100 -8 169 -16 177 -21 5 -3
21 -7 36 -10 33 -5 52 -9 72 -17 8 -3 33 -11 55 -17 22 -7 59 -20 82 -31 24
-10 45 -19 47 -19 12 0 171 -79 244 -121 45 -26 82 -44 82 -41 0 4 5 -1 11
-11 6 -9 14 -15 20 -12 5 4 9 1 9 -4 0 -6 5 -11 11 -11 5 0 37 -18 69 -40 32
-22 64 -40 69 -40 6 0 11 -4 11 -10 0 -5 7 -10 15 -10 9 0 18 -7 21 -15 4 -8
10 -12 15 -9 5 3 9 1 9 -3 0 -5 13 -17 30 -26 16 -10 35 -23 42 -30 7 -7 25
-18 40 -26 15 -8 37 -22 47 -33 11 -10 24 -18 29 -18 5 0 17 -9 27 -20 10 -11
22 -20 28 -20 5 0 18 -10 28 -22 11 -11 19 -17 19 -12 0 5 6 2 13 -7 7 -8 25
-24 42 -35 57 -37 200 -146 203 -155 2 -5 8 -9 14 -9 6 0 22 -10 37 -22 15
-13 40 -32 55 -43 16 -11 39 -30 52 -43 13 -13 24 -20 24 -16 0 4 8 -3 19 -14
10 -12 22 -22 26 -22 7 0 54 -37 102 -80 12 -11 27 -20 32 -20 5 0 11 -3 13
-7 1 -5 40 -35 85 -69 46 -34 80 -64 78 -68 -3 -3 -2 -4 1 -1 7 5 86 -53 92
-67 2 -5 9 -8 16 -8 6 0 19 -8 27 -17 9 -10 26 -25 38 -33 13 -8 31 -22 41
-30 10 -8 53 -40 94 -70 42 -30 76 -58 76 -62 0 -5 6 -8 14 -8 8 0 16 -3 18
-7 4 -10 85 -73 92 -73 3 0 15 -8 27 -17 46 -39 58 -49 79 -63 12 -8 28 -21
36 -27 7 -7 17 -13 22 -13 6 0 12 -3 14 -8 1 -4 32 -28 68 -54 36 -26 70 -51
75 -55 6 -5 23 -17 40 -27 16 -11 34 -23 40 -28 54 -46 382 -268 395 -268 6 0
8 -4 5 -10 -3 -6 -1 -10 6 -10 14 0 89 -48 101 -65 5 -7 8 -7 8 0 0 6 3 6 8 0
4 -6 28 -23 54 -38 26 -15 54 -34 62 -43 9 -8 16 -13 16 -10 0 4 23 -9 51 -29
28 -19 57 -35 64 -35 7 0 15 -4 17 -8 3 -8 91 -62 120 -74 10 -4 18 -12 18
-18 0 -6 4 -9 10 -5 5 3 18 -3 30 -15 11 -11 23 -21 28 -22 29 -5 193 -96 204
-112 4 -6 8 -8 8 -4 0 4 67 -27 149 -68 82 -41 154 -74 160 -74 6 0 11 -5 11
-12 0 -6 3 -9 6 -5 3 3 27 -5 52 -18 63 -31 140 -65 147 -65 5 0 69 -27 120
-52 12 -5 27 -10 35 -12 22 -4 52 -16 81 -32 14 -7 29 -11 33 -7 3 3 6 1 6 -5
0 -7 3 -11 8 -10 13 4 87 -24 105 -40 9 -8 20 -12 24 -9 3 4 12 -2 20 -13 8
-11 19 -20 24 -20 17 0 139 -133 139 -151 0 -5 5 -9 12 -9 6 0 9 -3 5 -6 -3
-4 -1 -12 6 -20 29 -32 36 -42 31 -47 -2 -2 2 -10 11 -17 8 -7 15 -16 15 -21
0 -5 16 -33 35 -64 20 -30 32 -55 28 -55 -4 0 -3 -4 2 -8 6 -4 15 -16 21 -27
61 -113 78 -142 89 -155 7 -8 16 -25 19 -37 4 -13 12 -23 17 -23 5 0 9 -5 9
-10 0 -6 12 -29 27 -53 37 -57 50 -78 64 -104 7 -13 16 -23 21 -23 4 0 8 -6 8
-12 0 -7 11 -26 25 -42 14 -16 25 -32 25 -36 0 -3 9 -16 20 -28 12 -12 17 -22
13 -22 -4 0 -3 -4 2 -8 19 -13 75 -90 75 -102 0 -6 4 -9 9 -5 5 3 12 -3 15
-13 4 -10 20 -34 36 -52 16 -18 37 -44 47 -58 10 -14 25 -32 33 -41 8 -9 25
-30 38 -46 91 -117 406 -444 592 -615 50 -47 108 -100 127 -118 19 -17 37 -32
39 -32 4 0 14 -8 69 -58 14 -12 25 -20 25 -17 0 3 11 -2 25 -11 24 -16 25 -15
25 5 0 11 -4 21 -10 21 -5 0 -10 4 -10 9 0 6 -16 27 -35 48 -19 21 -53 68 -75
105 -75 125 -73 154 4 82 27 -24 50 -44 52 -44 3 0 31 -24 108 -95 18 -16 66
-59 105 -95 40 -36 93 -84 118 -107 24 -24 46 -43 48 -43 2 0 21 -17 43 -37
21 -21 60 -56 86 -78 26 -22 58 -50 71 -62 13 -13 26 -23 29 -23 3 0 21 -15
40 -33 18 -17 48 -43 65 -57 18 -14 49 -40 69 -57 20 -18 43 -33 50 -33 6 0
12 -3 12 -7 0 -5 22 -20 49 -35 l49 -28 5 22 c4 12 1 29 -6 38 -7 8 -22 32
-32 53 -11 20 -23 37 -28 37 -4 0 -5 5 -2 10 3 6 -1 13 -9 16 -8 3 -18 14 -21
24 -3 10 -37 57 -75 106 -38 49 -70 92 -70 96 0 5 19 -10 42 -32 24 -22 49
-40 55 -40 7 0 13 -4 13 -10 0 -5 6 -10 14 -10 8 0 16 -3 18 -7 3 -8 76 -58
113 -79 42 -23 70 -39 75 -44 3 -3 25 -16 50 -29 25 -14 48 -29 51 -33 3 -5
13 -10 21 -12 8 -1 27 -9 41 -19 15 -9 31 -17 37 -17 5 0 10 -4 10 -10 0 -5 9
-10 20 -10 11 0 20 -4 20 -10 0 -5 9 -10 19 -10 11 0 21 -3 23 -7 4 -11 87
-53 104 -53 8 0 14 -4 14 -10 0 -5 4 -10 9 -10 9 0 169 -71 203 -90 10 -6 27
-10 38 -10 11 0 20 -5 20 -11 0 -5 4 -8 9 -4 5 3 17 -2 25 -11 9 -8 16 -13 16
-10 0 3 19 -2 43 -10 57 -21 117 -28 117 -14 0 6 -5 21 -11 33 -12 23 -188
198 -374 372 -205 191 -346 339 -318 334 26 -5 50 3 60 20 10 15 6 30 -21 83
-18 36 -38 72 -44 79 -30 35 -72 92 -72 98 0 3 -10 17 -23 31 -41 44 -40 72 1
47 6 -5 12 -4 12 1 0 5 9 12 21 15 21 6 22 29 4 84 -4 12 -7 25 -6 28 1 3 -8
15 -19 27 -11 12 -20 28 -20 35 0 7 -4 13 -10 13 -5 0 -10 7 -10 15 0 8 -4 15
-10 15 -5 0 -10 5 -10 10 0 6 -10 22 -22 35 -52 56 -64 70 -66 79 -2 4 20 19
48 32 80 37 79 41 -31 139 -19 17 -50 41 -69 55 -19 13 -37 27 -40 31 -9 12
-229 149 -239 149 -6 0 -11 4 -11 8 0 5 -17 17 -37 28 -21 11 -60 33 -88 49
-71 40 -154 84 -200 108 -22 12 -43 25 -46 30 -4 5 -11 7 -17 3 -6 -3 -12 -2
-14 2 -1 5 -74 44 -161 87 -86 42 -160 82 -163 87 -3 5 -12 7 -20 4 -8 -3 -14
-1 -14 4 0 5 -16 14 -35 21 -19 7 -35 16 -35 20 0 4 -16 13 -35 20 -19 7 -35
17 -35 21 0 4 -5 8 -11 8 -16 0 -41 28 -35 39 4 5 39 7 79 4 39 -2 78 -5 85
-6 6 0 12 -3 12 -6 0 -3 10 -6 23 -7 24 0 76 -9 117 -19 14 -3 41 -7 60 -10
19 -2 37 -5 40 -6 3 -1 10 -3 15 -4 9 -2 77 -16 98 -21 4 -1 10 -3 15 -4 4 -1
12 -3 17 -4 6 -1 33 -6 60 -11 59 -11 52 -9 90 -18 29 -7 48 -11 98 -22 12 -2
45 -10 72 -17 28 -7 56 -11 63 -10 6 2 12 -2 12 -7 0 -6 7 -8 15 -5 8 4 21 1
29 -5 7 -6 15 -9 17 -6 3 2 22 0 43 -6 41 -11 69 -18 101 -24 11 -2 31 -6 45
-10 14 -3 39 -9 55 -12 17 -3 32 -8 35 -11 3 -4 20 -8 39 -10 19 -1 41 -7 48
-14 7 -6 13 -8 13 -4 0 3 12 1 28 -5 15 -6 38 -13 52 -16 13 -2 30 -9 37 -14
7 -6 17 -8 23 -4 5 3 10 1 10 -4 0 -6 8 -11 18 -11 10 0 23 -5 30 -12 7 -7 12
-9 12 -5 0 4 29 -9 65 -28 36 -19 65 -31 65 -28 0 3 9 -4 20 -17 11 -13 20
-20 20 -16 0 23 172 -125 205 -175 6 -9 23 -36 39 -60 16 -24 29 -50 29 -56 0
-7 4 -13 8 -13 4 0 10 -12 15 -28 10 -35 9 -32 23 -66 6 -16 13 -38 16 -50 2
-11 4 -22 6 -23 1 -2 2 -6 4 -10 1 -5 5 -20 9 -34 4 -14 9 -32 10 -40 2 -8 5
-21 8 -29 3 -8 16 -49 28 -90 12 -41 28 -88 35 -105 47 -108 68 -151 78 -157
7 -4 8 -8 4 -8 -8 0 34 -64 78 -119 33 -42 172 -181 180 -181 4 0 18 -11 31
-25 13 -14 26 -25 30 -25 3 0 23 -13 43 -30 28 -21 41 -26 49 -18 7 7 8 17 3
27 -14 25 -14 33 1 42 10 7 10 9 0 9 -7 0 -11 4 -8 8 3 5 8 24 11 43 3 18 8
35 9 37 6 5 96 -61 96 -70 0 -4 5 -8 11 -8 11 0 102 -69 107 -82 2 -5 8 -8 13
-8 10 0 21 -9 88 -70 24 -22 46 -40 50 -40 3 0 22 -15 41 -33 19 -18 73 -64
120 -102 46 -39 92 -77 101 -85 9 -8 28 -25 42 -37 14 -13 28 -23 31 -23 5 0
32 -21 70 -55 6 -5 40 -30 76 -55 36 -24 66 -48 68 -52 2 -4 8 -8 14 -8 5 0
23 -9 39 -21 39 -27 56 -20 27 11 -13 13 -21 25 -19 25 7 0 -32 59 -44 67 -6
5 -6 8 0 8 7 0 7 3 0 8 -27 19 -77 130 -79 172 -1 41 13 45 78 23 47 -16 191
-88 206 -103 3 -3 19 -12 35 -21 32 -16 144 -78 210 -115 22 -13 67 -37 100
-53 33 -17 71 -37 85 -45 23 -14 74 -37 180 -83 78 -34 154 -61 190 -69 19 -3
40 -9 45 -12 25 -15 108 -22 122 -10 17 14 -6 62 -54 113 -7 8 -13 17 -13 22
0 5 -9 16 -20 26 -22 19 -29 64 -7 50 6 -4 14 -8 17 -8 24 -2 100 -29 100 -36
0 -5 3 -8 8 -8 4 1 10 0 15 -1 4 -1 10 -3 15 -4 4 -1 17 -7 30 -14 12 -7 22
-9 22 -5 0 4 4 3 8 -3 8 -12 171 -71 217 -78 17 -2 30 -5 30 -6 0 -2 9 -4 20
-5 11 -1 47 -5 80 -9 151 -19 316 -5 485 40 36 9 71 17 78 17 6 0 12 4 12 9 0
4 6 8 14 8 7 0 35 10 62 22 27 12 51 23 54 23 3 1 30 14 60 29 30 16 65 34 77
40 13 6 23 14 23 19 0 4 6 7 13 7 7 0 22 8 33 18 10 10 34 27 52 38 80 46 348
310 356 350 0 4 16 23 34 42 17 20 32 41 32 46 0 6 14 29 30 50 16 21 27 43
24 47 -3 5 -1 9 3 9 12 0 118 225 115 243 -1 4 3 7 10 7 6 0 9 3 5 6 -3 4 0
21 7 38 7 17 14 36 16 41 1 6 4 15 6 20 5 18 35 159 40 187 2 16 6 43 10 60
16 99 19 468 4 468 -3 0 -7 12 -8 27 -6 73 -35 213 -71 336 -11 38 -17 75 -14
84 4 10 2 14 -4 10 -10 -6 -16 11 -29 77 -3 11 -11 39 -19 64 -9 24 -13 47
-10 52 3 5 2 10 -2 12 -7 2 -23 53 -49 153 -7 26 -10 37 -16 55 -23 67 -28 91
-23 100 3 5 1 10 -5 10 -7 0 -10 6 -7 14 3 7 0 19 -6 25 -6 6 -8 11 -4 11 4 0
2 10 -5 23 -6 12 -13 32 -13 44 -1 11 -7 34 -12 50 -17 43 -38 127 -35 137 2
4 -1 13 -7 20 -9 12 -35 123 -29 129 2 2 -2 10 -8 18 -6 8 -15 32 -19 54 -9
45 -12 54 -15 58 -1 1 -3 9 -5 17 -1 8 -13 53 -24 100 -27 107 -33 130 -36
155 -2 11 -4 20 -5 20 -1 0 -8 31 -13 65 -1 8 -6 21 -10 28 -5 6 -6 12 -4 12
3 0 1 17 -4 38 -16 64 -17 69 -23 103 -3 19 -10 57 -16 84 -12 57 -22 114 -35
198 -28 179 -38 425 -22 527 14 82 15 87 28 111 7 13 11 25 10 27 -1 1 5 17
14 35 34 70 105 126 170 134 78 9 104 9 153 -2 29 -7 54 -13 55 -13 13 0 94
-27 102 -34 5 -4 17 -8 27 -8 10 0 18 -5 18 -12 0 -6 3 -9 6 -5 4 3 25 -4 48
-15 22 -12 44 -21 49 -20 4 1 7 -3 7 -9 0 -5 4 -8 9 -5 5 3 14 -1 21 -9 7 -8
18 -15 25 -15 6 0 22 -9 35 -20 13 -11 28 -20 35 -20 6 0 21 -9 33 -20 12 -12
22 -19 22 -16 0 3 36 -17 81 -44 44 -28 84 -50 89 -50 5 0 10 -3 12 -8 3 -7
175 -112 184 -112 3 0 25 -13 48 -30 24 -16 46 -26 50 -23 3 4 6 1 6 -6 0 -7
5 -9 10 -6 6 3 10 3 10 -2 0 -4 23 -19 50 -32 28 -14 50 -29 50 -33 0 -4 9 -8
19 -8 11 0 21 -4 23 -8 4 -9 372 -192 388 -192 5 0 10 -5 10 -12 0 -6 3 -8 6
-5 4 4 19 0 33 -7 25 -14 53 -24 69 -26 4 -1 14 -8 23 -15 8 -8 26 -17 40 -19
13 -2 25 -5 27 -7 1 -1 7 -3 12 -4 6 -1 13 -4 18 -5 4 -1 10 -2 15 -1 4 0 7
-3 7 -8 0 -5 12 -11 28 -14 24 -4 88 -25 147 -48 11 -4 34 -10 50 -13 64 -13
81 -16 105 -23 40 -10 53 -12 88 -15 17 -1 32 -5 32 -8 0 -11 304 -1 318 10 1
2 5 3 10 4 38 8 102 32 102 38 0 4 5 8 11 8 13 0 83 53 118 89 46 48 131 203
131 240 0 5 5 22 11 38 7 15 13 42 14 58 2 17 6 44 9 60 8 40 19 162 19 203 0
17 4 32 11 32 7 0 7 3 1 8 -5 4 -11 48 -11 97 -3 171 -9 305 -15 305 -3 0 -6
6 -6 13 0 18 -13 157 -18 192 -2 17 -6 53 -9 81 -7 66 -16 141 -23 179 -2 17
-6 50 -9 75 -2 25 -6 59 -8 75 -2 17 -7 50 -10 75 -4 25 -8 61 -11 80 -5 37
-11 91 -22 211 -8 88 -7 383 1 453 3 27 9 52 13 55 5 3 9 19 11 36 2 16 8 33
14 36 5 3 9 8 7 10 -3 5 19 77 36 114 8 17 16 42 19 55 3 14 14 49 25 78 10
28 17 52 15 52 -3 0 0 8 5 18 6 11 13 32 16 48 7 33 10 43 18 64 6 16 28 110
28 122 0 4 5 22 10 40 11 39 20 83 24 118 2 14 4 25 5 25 3 0 10 44 26 175 12
88 6 389 -7 408 -1 1 -3 7 -4 12 -1 6 -3 11 -4 13 -2 1 -5 13 -8 27 -2 14 -6
30 -7 35 -13 46 -59 145 -68 145 -5 0 -8 5 -8 11 0 6 -16 27 -35 47 -19 20
-35 40 -35 45 0 4 -4 7 -9 7 -6 0 -22 11 -37 25 -15 14 -33 25 -40 25 -8 0
-14 4 -14 8 0 8 -94 41 -173 61 -49 12 -324 5 -357 -9 -3 -1 -7 -2 -10 -2 -3
0 -41 -8 -85 -19 -107 -26 -106 -26 -136 -37 -15 -6 -30 -8 -33 -5 -3 4 -6 2
-6 -3 0 -5 -9 -10 -20 -11 -10 -1 -34 -9 -52 -17 -18 -8 -60 -25 -93 -37 -33
-12 -62 -25 -65 -28 -3 -4 -24 -13 -47 -21 -24 -7 -43 -18 -43 -23 0 -6 -2 -8
-5 -5 -4 3 -38 -11 -78 -32 -40 -20 -97 -50 -127 -66 -30 -15 -58 -33 -62 -38
-4 -6 -8 -7 -8 -2 0 5 -12 -1 -27 -15 -14 -13 -23 -18 -18 -10 4 8 -4 5 -21
-6 -44 -30 -189 -118 -191 -116 -2 2 -15 -9 -29 -22 -15 -14 -33 -25 -40 -25
-8 0 -14 -4 -14 -10 0 -5 -6 -10 -14 -10 -8 0 -16 -3 -18 -7 -4 -11 -102 -76
-155 -104 -13 -7 -23 -16 -23 -21 0 -4 -7 -8 -15 -8 -8 0 -15 -4 -15 -10 0 -5
-5 -10 -11 -10 -6 0 -30 -13 -54 -30 -24 -16 -48 -30 -54 -30 -5 0 -14 -8 -20
-17 -5 -10 -13 -18 -18 -17 -4 1 -24 -9 -43 -21 -19 -12 -51 -30 -70 -41 -19
-10 -37 -21 -40 -25 -3 -3 -22 -13 -42 -22 -21 -10 -38 -22 -38 -27 0 -6 -6
-10 -12 -10 -7 0 -52 -20 -99 -44 -81 -41 -153 -69 -210 -82 -124 -28 -197 27
-204 153 -1 29 -5 56 -9 60 -3 3 -1 12 5 20 6 7 8 13 3 13 -5 0 -9 25 -9 55 0
30 2 55 5 55 3 0 5 28 6 63 2 108 9 172 19 179 6 5 5 8 -3 8 -7 0 -11 4 -8 9
3 5 8 44 12 88 3 43 7 103 9 133 2 30 7 98 10 150 5 101 10 154 21 235 4 28 8
62 8 78 1 15 3 27 6 27 3 0 6 19 8 42 1 22 6 46 10 52 4 6 8 20 8 31 2 22 3
27 29 125 9 36 19 72 20 80 2 8 4 16 5 18 2 1 4 7 5 12 1 6 4 12 5 15 1 3 4
10 5 15 1 6 4 12 5 15 1 3 3 8 4 13 9 45 31 102 39 102 6 0 8 3 4 6 -3 3 1 23
8 44 7 21 11 41 8 44 -4 3 -2 6 4 6 6 0 16 20 23 45 7 25 17 45 22 45 5 0 7 4
3 10 -3 5 -1 17 4 27 10 18 25 53 77 178 15 39 32 73 37 76 5 3 8 8 7 10 -2 5
15 48 39 102 11 24 21 49 23 57 2 8 9 21 16 28 7 8 10 17 7 22 -3 4 2 13 10
20 8 7 15 20 15 29 0 9 4 21 9 27 5 5 14 26 21 47 6 20 16 37 21 37 5 0 9 7 9
15 0 8 18 53 39 100 22 47 40 88 41 90 0 3 11 29 24 57 13 29 31 76 41 103 10
28 23 56 28 63 5 6 6 12 3 12 -4 0 -1 10 6 23 12 22 18 42 20 65 1 6 6 12 11
12 6 0 8 3 4 6 -3 3 4 31 15 62 10 32 22 73 24 92 3 19 9 36 14 38 5 2 6 10 4
17 -3 8 -2 20 2 27 5 7 9 22 10 33 1 11 5 31 8 44 21 91 27 302 12 411 -4 30
-8 61 -8 68 -1 6 -5 12 -10 12 -5 0 -7 4 -4 9 3 5 1 24 -5 42 -16 51 -18 59
-19 64 0 3 -7 19 -15 35 -8 16 -15 31 -14 32 3 6 -56 124 -67 136 -7 6 -16 22
-20 35 -4 12 -9 24 -13 27 -3 3 -19 23 -36 45 -44 60 -43 58 -150 168 -96 98
-132 131 -205 187 -30 22 -67 51 -125 95 -10 8 -24 15 -30 15 -6 0 -17 9 -25
20 -8 11 -22 20 -32 20 -9 0 -21 6 -25 14 -4 7 -29 24 -54 38 -78 44 -93 53
-107 66 -7 6 -20 12 -28 12 -8 0 -14 4 -14 10 0 5 -3 9 -7 8 -5 -1 -18 3 -29
10 -12 6 -24 8 -28 5 -3 -3 -6 -2 -6 4 0 6 -15 16 -32 23 -18 7 -51 20 -73 30
-33 16 -64 27 -95 35 -3 1 -13 5 -22 9 -9 4 -21 5 -27 2 -5 -3 -11 -2 -13 3
-1 6 -14 11 -28 13 -14 2 -30 7 -36 10 -6 4 -27 9 -47 12 -20 2 -41 7 -46 10
-9 6 -28 10 -106 21 -22 3 -56 8 -75 12 -19 3 -55 7 -80 10 -61 5 -438 12
-442 8z"/>
</g>
</svg>
